HIERARCHY
ROOT Hips
{
	OFFSET 0.000000 100.481300 0.000000
	CHANNELS 6 Xposition Yposition Zposition Xrotation Yrotation Zrotation
	JOINT Spine
	{
		OFFSET -0.279200 12.230698 -2.892100
		CHANNELS 3 Xrotation Yrotation Zrotation
		JOINT Spine1
		{
			OFFSET -0.325700 14.269203 -3.374200
			CHANNELS 3 Xrotation Yrotation Zrotation
			JOINT Spine2
			{
				OFFSET -0.372300 16.307602 -0.352600
				CHANNELS 3 Xrotation Yrotation Zrotation
				JOINT Neck
				{
					OFFSET -0.418800 17.814194 8.416900
					CHANNELS 3 Xrotation Yrotation Zrotation
					JOINT Head
					{
						OFFSET 0.000000 7.031097 3.806800
						CHANNELS 3 Xrotation Yrotation Zrotation
						JOINT HeadTop_End
						{
							OFFSET 0.000000 24.646606 12.978600
							CHANNELS 3 Xrotation Yrotation Zrotation
							End Site
							{
								OFFSET 0.000000 27.854965 0.000000
							}
						}
					}
				}
				JOINT LeftShoulder
				{
					OFFSET 16.952999 14.495407 -7.737500
					CHANNELS 3 Xrotation Yrotation Zrotation
					JOINT LeftArm
					{
						OFFSET 9.308998 -2.777710 0.208600
						CHANNELS 3 Xrotation Yrotation Zrotation
						JOINT LeftForeArm
						{
							OFFSET 29.972298 0.000000 0.000000
							CHANNELS 3 Xrotation Yrotation Zrotation
							JOINT LeftHand
							{
								OFFSET 26.026505 0.000000 0.000000
								CHANNELS 3 Xrotation Yrotation Zrotation
								JOINT LeftHandThumb1
								{
									OFFSET 12.240501 -7.147949 9.207150
									CHANNELS 3 Xrotation Yrotation Zrotation
									JOINT LeftHandThumb2
									{
										OFFSET 4.138618 -2.389435 2.389433
										CHANNELS 3 Xrotation Yrotation Zrotation
										JOINT LeftHandThumb3
										{
											OFFSET 2.726913 -1.574387 1.574386
											CHANNELS 3 Xrotation Yrotation Zrotation
											JOINT LeftHandThumb4
											{
												OFFSET 3.941010 -2.275345 2.275342
												CHANNELS 3 Xrotation Yrotation Zrotation
												End Site
												{
													OFFSET -0.005798 5.087799 0.009903
												}
											}
										}
									}
								}
								JOINT LeftHandIndex1
								{
									OFFSET 24.424698 -1.985611 5.953459
									CHANNELS 3 Xrotation Yrotation Zrotation
									JOINT LeftHandIndex2
									{
										OFFSET 6.426697 0.000000 0.000000
										CHANNELS 3 Xrotation Yrotation Zrotation
										JOINT LeftHandIndex3
										{
											OFFSET 5.337898 0.000000 0.000000
											CHANNELS 3 Xrotation Yrotation Zrotation
											JOINT LeftHandIndex4
											{
												OFFSET 4.409401 0.000000 0.000000
												CHANNELS 3 Xrotation Yrotation Zrotation
												End Site
												{
													OFFSET 0.000000 4.409363 0.014373
												}
											}
										}
									}
								}
								JOINT LeftHandMiddle1
								{
									OFFSET 23.810104 0.000000 0.000000
									CHANNELS 3 Xrotation Yrotation Zrotation
									JOINT LeftHandMiddle2
									{
										OFFSET 7.176498 0.000000 0.000000
										CHANNELS 3 Xrotation Yrotation Zrotation
										JOINT LeftHandMiddle3
										{
											OFFSET 6.774902 0.000000 0.000000
											CHANNELS 3 Xrotation Yrotation Zrotation
											JOINT LeftHandMiddle4
											{
												OFFSET 5.403328 0.000000 0.000000
												CHANNELS 3 Xrotation Yrotation Zrotation
												End Site
												{
													OFFSET -0.027702 5.403244 0.017414
												}
											}
										}
									}
								}
								JOINT LeftHandRing1
								{
									OFFSET 22.908401 -0.839279 -6.020567
									CHANNELS 3 Xrotation Yrotation Zrotation
									JOINT LeftHandRing2
									{
										OFFSET 6.337502 0.000000 0.000000
										CHANNELS 3 Xrotation Yrotation Zrotation
										JOINT LeftHandRing3
										{
											OFFSET 5.779297 0.000000 0.000000
											CHANNELS 3 Xrotation Yrotation Zrotation
											JOINT LeftHandRing4
											{
												OFFSET 4.965698 0.000000 0.000000
												CHANNELS 3 Xrotation Yrotation Zrotation
												End Site
												{
													OFFSET 0.000000 4.965668 0.016186
												}
											}
										}
									}
								}
								JOINT LeftHandPinky1
								{
									OFFSET 20.037003 -1.530319 -10.950146
									CHANNELS 3 Xrotation Yrotation Zrotation
									JOINT LeftHandPinky2
									{
										OFFSET 5.254700 0.000000 0.000000
										CHANNELS 3 Xrotation Yrotation Zrotation
										JOINT LeftHandPinky3
										{
											OFFSET 4.810204 0.000000 0.000000
											CHANNELS 3 Xrotation Yrotation Zrotation
											JOINT LeftHandPinky4
											{
												OFFSET 3.647202 0.000000 0.000000
												CHANNELS 3 Xrotation Yrotation Zrotation
												End Site
												{
													OFFSET 0.000000 3.647186 0.011889
												}
											}
										}
									}
								}
							}
						}
					}
				}
				JOINT RightShoulder
				{
					OFFSET -15.141001 14.495407 -7.737500
					CHANNELS 3 Xrotation Yrotation Zrotation
					JOINT RightArm
					{
						OFFSET -9.308998 -2.777710 0.208500
						CHANNELS 3 Xrotation Yrotation Zrotation
						JOINT RightForeArm
						{
							OFFSET -29.972300 0.000000 0.000000
							CHANNELS 3 Xrotation Yrotation Zrotation
							JOINT RightHand
							{
								OFFSET -26.026505 0.000000 0.000000
								CHANNELS 3 Xrotation Yrotation Zrotation
								JOINT RightHandThumb1
								{
									OFFSET -12.240601 -7.148026 9.207092
									CHANNELS 3 Xrotation Yrotation Zrotation
									JOINT RightHandThumb2
									{
										OFFSET -4.138618 -2.389435 2.389433
										CHANNELS 3 Xrotation Yrotation Zrotation
										JOINT RightHandThumb3
										{
											OFFSET -2.726974 -1.574417 1.574421
											CHANNELS 3 Xrotation Yrotation Zrotation
											JOINT RightHandThumb4
											{
												OFFSET -3.941010 -2.275345 2.275343
												CHANNELS 3 Xrotation Yrotation Zrotation
												End Site
												{
													OFFSET 0.005814 5.087799 0.009927
												}
											}
										}
									}
								}
								JOINT RightHandIndex1
								{
									OFFSET -24.424698 -1.985657 5.953444
									CHANNELS 3 Xrotation Yrotation Zrotation
									JOINT RightHandIndex2
									{
										OFFSET -6.426697 0.000000 0.000000
										CHANNELS 3 Xrotation Yrotation Zrotation
										JOINT RightHandIndex3
										{
											OFFSET -5.337898 0.000000 0.000000
											CHANNELS 3 Xrotation Yrotation Zrotation
											JOINT RightHandIndex4
											{
												OFFSET -4.409401 0.000000 0.000000
												CHANNELS 3 Xrotation Yrotation Zrotation
												End Site
												{
													OFFSET 0.000000 4.409363 0.014408
												}
											}
										}
									}
								}
								JOINT RightHandMiddle1
								{
									OFFSET -23.810097 0.000000 0.000000
									CHANNELS 3 Xrotation Yrotation Zrotation
									JOINT RightHandMiddle2
									{
										OFFSET -7.176498 0.000000 0.000000
										CHANNELS 3 Xrotation Yrotation Zrotation
										JOINT RightHandMiddle3
										{
											OFFSET -6.774902 0.000000 0.000000
											CHANNELS 3 Xrotation Yrotation Zrotation
											JOINT RightHandMiddle4
											{
												OFFSET -5.403328 0.000000 0.000000
												CHANNELS 3 Xrotation Yrotation Zrotation
												End Site
												{
													OFFSET 0.027702 5.403244 0.017457
												}
											}
										}
									}
								}
								JOINT RightHandRing1
								{
									OFFSET -22.908302 -0.839325 -6.020576
									CHANNELS 3 Xrotation Yrotation Zrotation
									JOINT RightHandRing2
									{
										OFFSET -6.337502 0.000000 0.000000
										CHANNELS 3 Xrotation Yrotation Zrotation
										JOINT RightHandRing3
										{
											OFFSET -5.779297 0.000000 0.000000
											CHANNELS 3 Xrotation Yrotation Zrotation
											JOINT RightHandRing4
											{
												OFFSET -4.965698 0.000000 0.000000
												CHANNELS 3 Xrotation Yrotation Zrotation
												End Site
												{
													OFFSET 0.000000 4.965668 0.016226
												}
											}
										}
									}
								}
								JOINT RightHandPinky1
								{
									OFFSET -20.037003 -1.530334 -10.950259
									CHANNELS 3 Xrotation Yrotation Zrotation
									JOINT RightHandPinky2
									{
										OFFSET -5.254700 0.000000 0.000000
										CHANNELS 3 Xrotation Yrotation Zrotation
										JOINT RightHandPinky3
										{
											OFFSET -4.810204 0.000000 0.000000
											CHANNELS 3 Xrotation Yrotation Zrotation
											JOINT RightHandPinky4
											{
												OFFSET -3.647202 0.000000 0.000000
												CHANNELS 3 Xrotation Yrotation Zrotation
												End Site
												{
													OFFSET 0.000000 3.647186 0.011917
												}
											}
										}
									}
								}
							}
						}
					}
				}
			}
		}
	}
	JOINT LeftUpLeg
	{
		OFFSET 15.427100 -6.655098 0.678600
		CHANNELS 3 Xrotation Yrotation Zrotation
		JOINT LeftLeg
		{
			OFFSET 4.081073 -39.591068 13.024000
			CHANNELS 3 Xrotation Yrotation Zrotation
			JOINT LeftFoot
			{
				OFFSET -4.081074 -37.707932 -15.979700
				CHANNELS 3 Xrotation Yrotation Zrotation
				JOINT LeftToeBase
				{
					OFFSET 5.346399 -15.068900 20.645000
					CHANNELS 3 Xrotation Yrotation Zrotation
					JOINT LeftToe_End
					{
						OFFSET 2.754700 0.931300 11.300900
						CHANNELS 3 Xrotation Yrotation Zrotation
						End Site
						{
							OFFSET 0.000000 11.669021 0.000000
						}
					}
				}
			}
		}
	}
	JOINT RightUpLeg
	{
		OFFSET -15.569500 -6.655098 0.678600
		CHANNELS 3 Xrotation Yrotation Zrotation
		JOINT RightLeg
		{
			OFFSET -4.081825 -39.591045 13.023800
			CHANNELS 3 Xrotation Yrotation Zrotation
			JOINT RightFoot
			{
				OFFSET 4.081824 -37.707954 -15.979600
				CHANNELS 3 Xrotation Yrotation Zrotation
				JOINT RightToeBase
				{
					OFFSET -5.346400 -15.068900 20.645000
					CHANNELS 3 Xrotation Yrotation Zrotation
					JOINT RightToe_End
					{
						OFFSET -2.754700 0.931300 11.300900
						CHANNELS 3 Xrotation Yrotation Zrotation
						End Site
						{
							OFFSET 0.000000 11.669021 0.000000
						}
					}
				}
			}
		}
	}
}
MOTION
Frames: 4
Frame Time: 0.033333
0.359936 78.122780 0.742459 -0.252784 -0.021706 -1.247586 16.585969 0.322950 0.525520 20.119545 0.469852 0.900696 12.592134 0.364575 0.927906 2.981582 -0.915419 0.127353 -21.725495 3.041514 -1.451454 0.000000 0.000000 -0.000000 20.445942 -17.628645 8.705107 -33.570192 -17.336511 -36.862265 -2.640500 -52.136179 -20.395438 -54.784138 -19.506899 -15.020226 36.774565 8.584222 -16.863104 2.295245 23.044179 15.130525 0.424790 18.444393 14.528065 0.000001 -0.000001 -0.000000 0.652353 9.453930 -24.543694 0.393111 2.026192 -21.957660 0.522853 0.707774 -27.284569 -0.000003 -0.000000 0.000001 0.652351 9.453933 -24.543701 0.393109 2.026192 -21.957660 0.393121 2.026191 -21.957656 0.000002 0.000000 0.000001 0.652285 9.453779 -24.541974 0.393052 2.026043 -21.955947 0.393046 2.026037 -21.955954 0.000001 0.000000 0.000001 0.643624 9.449196 -24.541293 0.384723 2.021084 -21.956388 0.384720 2.021079 -21.956386 -0.000000 -0.000001 0.000001 18.311829 13.497350 -7.979213 -29.297195 10.275802 43.682529 -39.182442 60.008813 40.506170 -15.081117 -0.977418 14.319014 40.076138 0.945909 20.753835 5.156838 -21.099685 -19.108112 4.784346 -12.461133 -21.495565 -0.000001 -0.000000 0.000000 18.327829 0.099132 38.977963 -3.924285 9.265837 32.256275 -5.637820 12.214596 12.777106 0.000002 -0.000001 0.000001 -3.492535 -2.447889 34.024512 0.778393 -2.790413 31.036981 0.777660 -2.796188 31.036516 -0.000000 0.000002 -0.000001 -12.758016 -10.091637 31.800989 -8.974646 -8.729481 30.664158 -8.961828 -8.751772 30.658363 -0.000001 0.000001 -0.000002 -16.765418 -2.967962 36.666344 0.750493 -2.749772 30.591430 1.344327 -3.570208 41.053798 -0.000000 -0.000001 0.000005 -34.955754 0.654113 29.418267 45.140287 -5.645793 -8.208200 -10.273701 -7.375129 -13.350957 -3.786465 -12.891909 -1.582450 0.000000 0.000000 0.000000 -38.671431 -10.838536 -25.217082 46.134752 9.137171 -0.977572 -8.832968 1.206257 13.903776 -5.744936 9.698426 12.419061 0.000000 0.000000 -0.000000 
0.352635 78.105652 0.747867 -0.272005 -0.024963 -1.242155 16.586011 0.322654 0.524928 20.136122 0.470254 0.900724 12.608716 0.364978 0.927923 2.866250 -0.917684 0.128439 -21.700766 3.062576 -1.439155 -0.000001 -0.000000 0.000000 20.455187 -17.613764 8.703441 -33.615794 -17.366376 -36.854123 -2.630953 -52.110153 -20.392891 -54.784128 -19.506841 -15.020190 36.774544 8.584233 -16.863110 2.295268 23.044208 15.130542 0.424776 18.444414 14.528065 -0.000001 0.000000 -0.000002 0.652351 9.453935 -24.543694 0.393115 2.026190 -21.957660 0.522846 0.707776 -27.284567 -0.000001 0.000000 -0.000001 0.652353 9.453941 -24.543687 0.393115 2.026188 -21.957667 0.393113 2.026193 -21.957660 -0.000003 0.000000 -0.000000 0.652278 9.453791 -24.541971 0.393053 2.026043 -21.955947 0.393061 2.026035 -21.955950 -0.000001 0.000000 0.000000 0.643615 9.449200 -24.541278 0.384721 2.021082 -21.956382 0.384724 2.021078 -21.956398 -0.000000 -0.000001 0.000001 18.336106 13.515108 -7.960657 -29.357768 10.315381 43.655834 -39.184594 59.982537 40.508472 -14.944099 -1.055099 14.412007 40.088440 0.916287 20.763833 5.156801 -21.099552 -19.108088 4.788508 -12.474045 -21.496608 -0.000000 -0.000000 -0.000000 18.300005 0.115836 39.086826 -3.921575 9.268570 32.239384 -5.652256 12.199591 12.856843 0.000000 0.000002 -0.000001 -3.515550 -2.472844 34.131890 0.777568 -2.789055 31.020131 0.781526 -2.802588 31.115746 -0.000000 -0.000003 0.000004 -12.767465 -10.133526 31.904462 -8.977151 -8.725284 30.647605 -8.949974 -8.771465 30.736206 0.000001 -0.000001 -0.000002 -16.780959 -3.055668 36.867544 0.748944 -2.747135 30.559072 1.337262 -3.562158 40.940297 -0.000000 -0.000002 -0.000001 -34.946291 0.658039 29.416675 45.178682 -5.644977 -8.201559 -10.298802 -7.368778 -13.354095 -3.789022 -12.983857 -1.588744 0.000000 0.000000 0.000000 -38.665725 -10.827115 -25.236675 46.159819 9.178634 -0.969769 -8.859218 1.233637 13.899629 -5.793692 9.758377 12.516342 0.000000 0.000000 -0.000000 
0.349343 78.100639 0.769787 -0.288272 -0.037468 -1.231030 16.586034 0.322224 0.524465 20.147487 0.470555 0.900718 12.620018 0.365263 0.927902 2.756879 -0.919832 0.129461 -21.666089 3.085910 -1.418698 0.000000 0.000000 -0.000000 20.462108 -17.602096 8.702018 -33.629912 -17.390871 -36.845940 -2.622255 -52.093060 -20.387403 -54.784124 -19.506797 -15.020257 36.774558 8.584224 -16.863109 2.295268 23.044194 15.130525 0.424780 18.444391 14.528089 0.000005 0.000001 0.000001 0.652352 9.453936 -24.543682 0.393127 2.026189 -21.957661 0.522842 0.707774 -27.284577 0.000002 -0.000000 0.000000 0.652356 9.453936 -24.543682 0.393124 2.026188 -21.957668 0.393103 2.026192 -21.957663 -0.000002 0.000000 0.000000 0.652279 9.453795 -24.541968 0.393062 2.026040 -21.955954 0.393054 2.026039 -21.955950 0.000000 0.000000 0.000000 0.643618 9.449200 -24.541290 0.384719 2.021087 -21.956386 0.384719 2.021077 -21.956386 -0.000002 -0.000000 0.000001 18.357144 13.539836 -7.950178 -29.411764 10.337693 43.628130 -39.188210 59.947532 40.514695 -14.835652 -1.101434 14.487475 40.102400 0.882690 20.775180 5.156792 -21.099455 -19.108079 4.792254 -12.485741 -21.497537 -0.000002 -0.000000 -0.000002 18.233154 0.138528 39.291428 -3.913176 9.276975 32.187441 -5.697177 12.152725 13.105371 -0.000005 -0.000001 0.000000 -3.573269 -2.527779 34.330443 0.775045 -2.784859 30.968289 0.793639 -2.822518 31.362764 0.000000 -0.000002 0.000002 -12.800280 -10.219598 32.094451 -8.984868 -8.712373 30.596683 -8.912838 -8.832753 30.978883 0.000000 -0.000001 -0.000002 -16.791909 -3.144094 37.046762 0.747110 -2.744003 30.520553 1.330213 -3.554095 40.826780 -0.000001 0.000000 0.000000 -34.904579 0.663391 29.406020 45.191680 -5.652716 -8.202479 -10.331600 -7.335027 -13.355410 -3.791482 -13.072448 -1.594822 -0.000000 0.000000 0.000000 -38.644872 -10.819404 -25.255234 46.167018 9.227847 -0.967795 -8.888709 1.255512 13.898904 -5.841562 9.815580 12.609779 0.000000 0.000000 0.000000 
0.348173 78.109695 0.810683 -0.299661 -0.057485 -1.220134 16.586045 0.321477 0.523742 20.149724 0.470679 0.900656 12.622254 0.365348 0.927818 2.662282 -0.921681 0.130332 -21.622991 3.112914 -1.393819 -0.000004 0.000000 -0.000000 20.465017 -17.594489 8.700551 -33.605081 -17.402108 -36.833311 -2.632022 -52.095335 -20.395901 -54.782943 -19.501517 -15.018843 36.774555 8.584213 -16.863112 2.295247 23.044187 15.130529 0.424787 18.444395 14.528089 0.000003 0.000002 -0.000000 0.652338 9.453931 -24.543708 0.393127 2.026183 -21.957661 0.522848 0.707773 -27.284572 -0.000001 0.000000 0.000000 0.652339 9.453926 -24.543713 0.393126 2.026186 -21.957668 0.393111 2.026193 -21.957660 -0.000000 0.000001 -0.000000 0.652273 9.453781 -24.541981 0.393052 2.026041 -21.955950 0.393050 2.026037 -21.955950 0.000000 -0.000001 0.000001 0.643615 9.449188 -24.541297 0.384721 2.021079 -21.956384 0.384716 2.021080 -21.956389 0.000000 0.000000 0.000000 18.379329 13.568693 -7.945133 -29.439092 10.338429 43.595325 -39.196786 59.914467 40.523868 -14.749165 -1.130286 14.583543 40.117925 0.845316 20.787811 5.156725 -21.099349 -19.108076 4.795678 -12.496282 -21.498353 0.000000 -0.000001 -0.000001 18.138160 0.150585 39.517221 -3.898811 9.291396 32.098378 -5.774857 12.070651 13.537903 -0.000003 0.000000 -0.000000 -3.658116 -2.600459 34.544798 0.770733 -2.777670 30.879401 0.814964 -2.857085 31.792912 0.000001 0.000002 0.000002 -12.858506 -10.325620 32.297410 -8.998072 -8.690220 30.509407 -8.847542 -8.939110 31.401610 -0.000000 0.000002 -0.000005 -16.798323 -3.232768 37.203764 0.744945 -2.740360 30.475747 1.323196 -3.546018 40.713275 -0.000000 0.000000 0.000002 -34.829518 0.670024 29.392415 45.179635 -5.665096 -8.202366 -10.377893 -7.282383 -13.364172 -3.793121 -13.156037 -1.610069 0.000000 -0.000000 0.000000 -38.605073 -10.820610 -25.266468 46.151759 9.277733 -0.970229 -8.920875 1.274201 13.901101 -5.887384 9.869724 12.698860 0.000001 -0.000000 0.000000 
